<mxfile host="app.diagrams.net" modified="2023-04-24T18:25:12.956Z" agent="Mozilla/5.0 (X11; Ubuntu; Linux x86_64; rv:88.0) Gecko/20100101 Firefox/88.0" etag="pjsXdAtGcngquj3qOZVI" version="21.2.1" type="github" pages="13">
  <diagram id="WLleX0AgLbb_jvj61vY2" name="Page-13">
    <mxGraphModel dx="880" dy="429" grid="1" gridSize="10" guides="1" tooltips="1" connect="1" arrows="1" fold="1" page="1" pageScale="1" pageWidth="827" pageHeight="1169" math="0" shadow="0">
      <root>
        <mxCell id="0" />
        <mxCell id="1" parent="0" />
        <mxCell id="GwEWIJlEij6IFyil9-Ml-2" value="&lt;b style=&quot;font-size: 14px;&quot;&gt;&lt;font style=&quot;font-size: 14px;&quot; color=&quot;#051742&quot;&gt;Prometheus&lt;/font&gt;&lt;/b&gt;" style="whiteSpace=wrap;html=1;aspect=fixed;strokeColor=#051742;strokeWidth=2;fontSize=14;" vertex="1" parent="1">
          <mxGeometry x="100" y="140" width="140" height="140" as="geometry" />
        </mxCell>
        <mxCell id="GwEWIJlEij6IFyil9-Ml-3" value="&lt;b style=&quot;font-size: 14px;&quot;&gt;&lt;font style=&quot;font-size: 14px;&quot; color=&quot;#051742&quot;&gt;Client HTTP&lt;/font&gt;&lt;/b&gt;" style="shape=umlActor;verticalLabelPosition=bottom;verticalAlign=top;html=1;outlineConnect=0;strokeColor=#051742;strokeWidth=2;fontSize=14;" vertex="1" parent="1">
          <mxGeometry x="580" y="175" width="40" height="70" as="geometry" />
        </mxCell>
        <mxCell id="GwEWIJlEij6IFyil9-Ml-6" value="" style="endArrow=classic;html=1;rounded=0;strokeColor=#663300;strokeWidth=2;entryX=1.021;entryY=0.364;entryDx=0;entryDy=0;entryPerimeter=0;" edge="1" parent="1" target="GwEWIJlEij6IFyil9-Ml-2">
          <mxGeometry width="50" height="50" relative="1" as="geometry">
            <mxPoint x="570" y="191" as="sourcePoint" />
            <mxPoint x="320" y="190" as="targetPoint" />
          </mxGeometry>
        </mxCell>
        <mxCell id="GwEWIJlEij6IFyil9-Ml-8" value="" style="endArrow=classic;html=1;rounded=0;exitX=1.014;exitY=0.707;exitDx=0;exitDy=0;exitPerimeter=0;strokeColor=#99004D;strokeWidth=2;" edge="1" parent="1" source="GwEWIJlEij6IFyil9-Ml-2">
          <mxGeometry width="50" height="50" relative="1" as="geometry">
            <mxPoint x="320" y="240" as="sourcePoint" />
            <mxPoint x="570" y="240" as="targetPoint" />
          </mxGeometry>
        </mxCell>
        <mxCell id="GwEWIJlEij6IFyil9-Ml-10" value="&lt;div align=&quot;left&quot;&gt;&lt;font color=&quot;#663300&quot;&gt;&lt;b&gt;&lt;u&gt;REQUÊTE&lt;/u&gt;&lt;br&gt;&lt;br&gt;&lt;/b&gt;&lt;/font&gt;&lt;/div&gt;&lt;div align=&quot;left&quot;&gt;&lt;font color=&quot;#663300&quot;&gt;&lt;b&gt;GET /api/v1/query?query=prometheus_http_requests_total&lt;br&gt;&lt;/b&gt;&lt;/font&gt;&lt;/div&gt;" style="text;strokeColor=none;align=left;fillColor=none;html=1;verticalAlign=middle;whiteSpace=wrap;rounded=0;" vertex="1" parent="1">
          <mxGeometry x="274" y="110" width="280" height="80" as="geometry" />
        </mxCell>
        <mxCell id="cz-_qBQlBLq8nIr2ncOp-3" value="&lt;div align=&quot;left&quot;&gt;&lt;font&gt;&lt;b&gt;&lt;u&gt;RÉPONSE&lt;/u&gt;&lt;br&gt;&lt;/b&gt;&lt;/font&gt;&lt;/div&gt;&lt;div align=&quot;left&quot;&gt;&lt;font&gt;&lt;b&gt;&lt;br&gt;&lt;/b&gt;&lt;/font&gt;&lt;/div&gt;&lt;div align=&quot;left&quot;&gt;&lt;font&gt;&lt;b&gt;200&lt;br&gt;&lt;/b&gt;&lt;/font&gt;&lt;/div&gt;&lt;div align=&quot;left&quot;&gt;&lt;font&gt;&lt;b&gt;{&lt;/b&gt;&lt;/font&gt;&lt;/div&gt;&lt;div align=&quot;left&quot;&gt;&lt;font&gt;&lt;b&gt;&amp;nbsp; &quot;status&quot;: &quot;succes&quot;,&lt;/b&gt;&lt;/font&gt;&lt;/div&gt;&lt;div align=&quot;left&quot;&gt;&lt;font&gt;&lt;b&gt;&amp;nbsp; &quot;data&quot;: {...}&lt;/b&gt;&lt;/font&gt;&lt;/div&gt;&lt;div align=&quot;left&quot;&gt;&lt;font&gt;&lt;b&gt;}&lt;br&gt;&lt;/b&gt;&lt;/font&gt;&lt;/div&gt;" style="text;strokeColor=none;align=left;fillColor=none;html=1;verticalAlign=middle;whiteSpace=wrap;rounded=0;fontColor=#99004D;" vertex="1" parent="1">
          <mxGeometry x="274" y="250" width="280" height="95" as="geometry" />
        </mxCell>
      </root>
    </mxGraphModel>
  </diagram>
  <diagram id="ikGw7YIecGYyeW82r7bx" name="Page-12">
    <mxGraphModel dx="880" dy="429" grid="1" gridSize="10" guides="1" tooltips="1" connect="1" arrows="1" fold="1" page="1" pageScale="1" pageWidth="827" pageHeight="1169" math="0" shadow="0">
      <root>
        <mxCell id="0" />
        <mxCell id="1" parent="0" />
        <mxCell id="HTbwEpKcskzhaPBceTfe-1" value="&lt;div style=&quot;font-size: 14px;&quot; align=&quot;left&quot;&gt;&lt;font style=&quot;font-size: 14px;&quot; color=&quot;#051742&quot;&gt;&lt;b&gt;&lt;font style=&quot;font-size: 14px;&quot;&gt;{&lt;/font&gt;&lt;/b&gt;&lt;/font&gt;&lt;/div&gt;&lt;div style=&quot;font-size: 14px;&quot; align=&quot;left&quot;&gt;&lt;font style=&quot;font-size: 14px;&quot; color=&quot;#051742&quot;&gt;&lt;b&gt;&lt;font style=&quot;font-size: 14px;&quot;&gt;&amp;nbsp; &quot;__name__&quot;: &quot;prometheus_http_requests_total&quot;,&lt;/font&gt;&lt;/b&gt;&lt;/font&gt;&lt;/div&gt;&lt;div style=&quot;font-size: 14px;&quot; align=&quot;left&quot;&gt;&lt;font style=&quot;font-size: 14px;&quot; color=&quot;#051742&quot;&gt;&lt;b&gt;&lt;font style=&quot;font-size: 14px;&quot;&gt;&amp;nbsp; &quot;code&quot;: &quot;200&quot;,&lt;/font&gt;&lt;/b&gt;&lt;/font&gt;&lt;/div&gt;&lt;div style=&quot;font-size: 14px;&quot; align=&quot;left&quot;&gt;&lt;font style=&quot;font-size: 14px;&quot; color=&quot;#051742&quot;&gt;&lt;b&gt;&lt;font style=&quot;font-size: 14px;&quot;&gt;&amp;nbsp; &quot;handler&quot;: &quot;/-/ready&quot;,&lt;/font&gt;&lt;/b&gt;&lt;/font&gt;&lt;/div&gt;&lt;div style=&quot;font-size: 14px;&quot; align=&quot;left&quot;&gt;&lt;font style=&quot;font-size: 14px;&quot; color=&quot;#051742&quot;&gt;&lt;b&gt;&lt;font style=&quot;font-size: 14px;&quot;&gt;&amp;nbsp; &quot;instance&quot;: &quot;localhost:9090&quot;,&lt;/font&gt;&lt;/b&gt;&lt;/font&gt;&lt;/div&gt;&lt;div style=&quot;font-size: 14px;&quot; align=&quot;left&quot;&gt;&lt;font style=&quot;font-size: 14px;&quot; color=&quot;#051742&quot;&gt;&lt;b&gt;&lt;font style=&quot;font-size: 14px;&quot;&gt;&amp;nbsp; &quot;job&quot;: &quot;prometheus&quot;&lt;br&gt;&lt;/font&gt;&lt;/b&gt;&lt;/font&gt;&lt;/div&gt;&lt;div style=&quot;font-size: 14px;&quot; align=&quot;left&quot;&gt;&lt;font style=&quot;font-size: 14px;&quot; color=&quot;#051742&quot;&gt;&lt;b&gt;&lt;font style=&quot;font-size: 14px;&quot;&gt;}&lt;/font&gt;&lt;/b&gt;&lt;/font&gt;&lt;/div&gt;" style="text;align=left;html=1;verticalAlign=middle;whiteSpace=wrap;rounded=0;strokeColor=none;" parent="1" vertex="1">
          <mxGeometry x="141" y="60" width="350" height="120" as="geometry" />
        </mxCell>
        <mxCell id="HTbwEpKcskzhaPBceTfe-2" value="&lt;div style=&quot;font-size: 13px;&quot;&gt;&lt;font style=&quot;font-size: 13px;&quot;&gt;&lt;b&gt;@&lt;font style=&quot;font-size: 13px;&quot; color=&quot;#990000&quot;&gt;1682274232.532&lt;/font&gt;&lt;/b&gt;&lt;/font&gt;&lt;/div&gt;&lt;font style=&quot;font-size: 13px;&quot;&gt;&lt;br&gt;&lt;/font&gt;&lt;div style=&quot;font-size: 13px;&quot; align=&quot;center&quot;&gt;&lt;font style=&quot;font-size: 13px;&quot; color=&quot;#051742&quot;&gt;&lt;b&gt;1&lt;/b&gt;&lt;/font&gt;&lt;font style=&quot;font-size: 13px;&quot;&gt;&lt;br&gt;&lt;/font&gt;&lt;/div&gt;" style="whiteSpace=wrap;html=1;aspect=fixed;strokeColor=#d6b656;fillColor=#FFE6CC;" parent="1" vertex="1">
          <mxGeometry x="141" y="190" width="120" height="120" as="geometry" />
        </mxCell>
        <mxCell id="HTbwEpKcskzhaPBceTfe-7" value="&lt;div style=&quot;font-size: 13px;&quot;&gt;&lt;font style=&quot;font-size: 13px;&quot;&gt;&lt;b&gt;@&lt;font style=&quot;font-size: 13px;&quot; color=&quot;#990000&quot;&gt;1682274247532&lt;/font&gt;&lt;/b&gt;&lt;/font&gt;&lt;/div&gt;&lt;font style=&quot;font-size: 13px;&quot;&gt;&lt;br&gt;&lt;/font&gt;&lt;div style=&quot;font-size: 13px;&quot; align=&quot;center&quot;&gt;&lt;font style=&quot;font-size: 13px;&quot; color=&quot;#051742&quot;&gt;&lt;b&gt;1&lt;/b&gt;&lt;/font&gt;&lt;font style=&quot;font-size: 13px;&quot;&gt;&lt;br&gt;&lt;/font&gt;&lt;/div&gt;" style="whiteSpace=wrap;html=1;aspect=fixed;strokeColor=#d6b656;fillColor=#FFE6CC;" parent="1" vertex="1">
          <mxGeometry x="330" y="190" width="120" height="120" as="geometry" />
        </mxCell>
        <mxCell id="HTbwEpKcskzhaPBceTfe-8" value="&lt;div style=&quot;font-size: 13px;&quot;&gt;&lt;b&gt;@&lt;font style=&quot;font-size: 13px;&quot; color=&quot;#990000&quot;&gt;1682274262532&lt;/font&gt;&lt;/b&gt;&lt;/div&gt;&lt;br&gt;&lt;div align=&quot;center&quot;&gt;&lt;font color=&quot;#051742&quot;&gt;&lt;b&gt;3&lt;/b&gt;&lt;/font&gt;&lt;br&gt;&lt;/div&gt;" style="whiteSpace=wrap;html=1;aspect=fixed;strokeColor=#d6b656;fillColor=#FFE6CC;" parent="1" vertex="1">
          <mxGeometry x="510" y="190" width="120" height="120" as="geometry" />
        </mxCell>
        <mxCell id="gFt6DhLstp0jwIvlzGEm-1" value="" style="endArrow=none;html=1;rounded=0;exitX=1;exitY=0.5;exitDx=0;exitDy=0;entryX=0;entryY=0.5;entryDx=0;entryDy=0;" parent="1" source="HTbwEpKcskzhaPBceTfe-2" target="HTbwEpKcskzhaPBceTfe-7" edge="1">
          <mxGeometry width="50" height="50" relative="1" as="geometry">
            <mxPoint x="390" y="250" as="sourcePoint" />
            <mxPoint x="440" y="200" as="targetPoint" />
          </mxGeometry>
        </mxCell>
        <mxCell id="gFt6DhLstp0jwIvlzGEm-2" value="" style="endArrow=none;html=1;rounded=0;entryX=0;entryY=0.5;entryDx=0;entryDy=0;" parent="1" target="HTbwEpKcskzhaPBceTfe-2" edge="1">
          <mxGeometry width="50" height="50" relative="1" as="geometry">
            <mxPoint x="120" y="250" as="sourcePoint" />
            <mxPoint x="440" y="200" as="targetPoint" />
          </mxGeometry>
        </mxCell>
        <mxCell id="gFt6DhLstp0jwIvlzGEm-3" value="" style="endArrow=none;html=1;rounded=0;exitX=1;exitY=0.5;exitDx=0;exitDy=0;entryX=0;entryY=0.5;entryDx=0;entryDy=0;" parent="1" source="HTbwEpKcskzhaPBceTfe-7" target="HTbwEpKcskzhaPBceTfe-8" edge="1">
          <mxGeometry width="50" height="50" relative="1" as="geometry">
            <mxPoint x="390" y="250" as="sourcePoint" />
            <mxPoint x="500" y="240" as="targetPoint" />
          </mxGeometry>
        </mxCell>
        <mxCell id="gFt6DhLstp0jwIvlzGEm-4" value="" style="endArrow=classic;html=1;rounded=0;exitX=1;exitY=0.5;exitDx=0;exitDy=0;entryX=0.75;entryY=0;entryDx=0;entryDy=0;" parent="1" source="HTbwEpKcskzhaPBceTfe-8" target="Zw9pmfzuGqeiK-YZGkwM-7" edge="1">
          <mxGeometry width="50" height="50" relative="1" as="geometry">
            <mxPoint x="390" y="250" as="sourcePoint" />
            <mxPoint x="690" y="250" as="targetPoint" />
          </mxGeometry>
        </mxCell>
        <mxCell id="Zw9pmfzuGqeiK-YZGkwM-7" value="t" style="text;strokeColor=none;align=center;fillColor=none;html=1;verticalAlign=middle;whiteSpace=wrap;rounded=0;fontStyle=1" parent="1" vertex="1">
          <mxGeometry x="640" y="250" width="40" height="20" as="geometry" />
        </mxCell>
        <mxCell id="Zw9pmfzuGqeiK-YZGkwM-8" value="&lt;font style=&quot;font-size: 13px;&quot;&gt;15s&lt;/font&gt;" style="text;strokeColor=none;align=center;fillColor=none;html=1;verticalAlign=middle;whiteSpace=wrap;rounded=0;fontStyle=0" parent="1" vertex="1">
          <mxGeometry x="460" y="250" width="40" height="20" as="geometry" />
        </mxCell>
        <mxCell id="Zw9pmfzuGqeiK-YZGkwM-9" value="15s" style="text;strokeColor=none;align=center;fillColor=none;html=1;verticalAlign=middle;whiteSpace=wrap;rounded=0;fontStyle=0;fontSize=13;" parent="1" vertex="1">
          <mxGeometry x="280" y="250" width="40" height="20" as="geometry" />
        </mxCell>
      </root>
    </mxGraphModel>
  </diagram>
  <diagram id="06L2UEvK-FPHvxNi94kN" name="Page-11">
    <mxGraphModel dx="880" dy="429" grid="1" gridSize="10" guides="1" tooltips="1" connect="1" arrows="1" fold="1" page="1" pageScale="1" pageWidth="827" pageHeight="1169" math="0" shadow="0">
      <root>
        <mxCell id="0" />
        <mxCell id="1" parent="0" />
        <mxCell id="6MojfKpHz2BbmUGOE4sK-1" value="" style="whiteSpace=wrap;html=1;aspect=fixed;strokeColor=#051742;strokeWidth=2;" parent="1" vertex="1">
          <mxGeometry x="140" y="80" width="230" height="230" as="geometry" />
        </mxCell>
        <mxCell id="jcBCAO0ZXmvhwiSaBV95-1" value="" style="strokeWidth=2;html=1;shape=mxgraph.flowchart.database;whiteSpace=wrap;strokeColor=#051742;" parent="1" vertex="1">
          <mxGeometry x="220" y="210" width="60" height="60" as="geometry" />
        </mxCell>
        <mxCell id="jcBCAO0ZXmvhwiSaBV95-2" value="&lt;b&gt;&lt;font color=&quot;#051742&quot;&gt;Prometheus&lt;/font&gt;&lt;/b&gt;" style="whiteSpace=wrap;html=1;aspect=fixed;strokeColor=#051742;strokeWidth=2;" parent="1" vertex="1">
          <mxGeometry x="520" y="130" width="100" height="100" as="geometry" />
        </mxCell>
        <mxCell id="jcBCAO0ZXmvhwiSaBV95-5" value="&lt;b&gt;&lt;font color=&quot;#051742&quot;&gt;Java Application&lt;/font&gt;&lt;/b&gt;" style="whiteSpace=wrap;html=1;aspect=fixed;strokeColor=#051742;strokeWidth=2;labelBackgroundColor=none;" parent="1" vertex="1">
          <mxGeometry x="215" y="100" width="70" height="70" as="geometry" />
        </mxCell>
        <mxCell id="jcBCAO0ZXmvhwiSaBV95-7" value="&lt;b&gt;&lt;font color=&quot;#051742&quot;&gt;Serveur Linux&lt;/font&gt;&lt;/b&gt;" style="text;align=center;html=1;verticalAlign=middle;whiteSpace=wrap;rounded=0;strokeColor=#051742;strokeWidth=2;" parent="1" vertex="1">
          <mxGeometry x="140" y="50" width="90" height="30" as="geometry" />
        </mxCell>
        <mxCell id="jcBCAO0ZXmvhwiSaBV95-8" value="" style="ellipse;whiteSpace=wrap;html=1;aspect=fixed;strokeColor=none;fillColor=#990000;" parent="1" vertex="1">
          <mxGeometry x="270" y="160" width="20" height="20" as="geometry" />
        </mxCell>
        <mxCell id="jcBCAO0ZXmvhwiSaBV95-9" value="" style="ellipse;whiteSpace=wrap;html=1;aspect=fixed;strokeColor=none;fillColor=#990000;" parent="1" vertex="1">
          <mxGeometry x="270" y="250" width="20" height="20" as="geometry" />
        </mxCell>
        <mxCell id="jcBCAO0ZXmvhwiSaBV95-10" value="" style="ellipse;whiteSpace=wrap;html=1;aspect=fixed;strokeColor=none;fillColor=#990000;" parent="1" vertex="1">
          <mxGeometry x="360" y="70" width="20" height="20" as="geometry" />
        </mxCell>
        <mxCell id="jcBCAO0ZXmvhwiSaBV95-11" value="" style="ellipse;whiteSpace=wrap;html=1;aspect=fixed;strokeColor=none;fillColor=#990000;" parent="1" vertex="1">
          <mxGeometry x="510" y="220" width="20" height="20" as="geometry" />
        </mxCell>
        <mxCell id="jcBCAO0ZXmvhwiSaBV95-13" value="&lt;b&gt;&lt;font color=&quot;#990000&quot;&gt;JMX exporter &lt;/font&gt;&lt;/b&gt;&lt;i&gt;&lt;font color=&quot;#990000&quot;&gt;http://&amp;lt;host&amp;gt;:12345/metrics&lt;/font&gt;&lt;/i&gt;" style="text;strokeColor=none;align=center;fillColor=none;html=1;verticalAlign=middle;whiteSpace=wrap;rounded=0;" parent="1" vertex="1">
          <mxGeometry x="201.25" y="180" width="235" height="30" as="geometry" />
        </mxCell>
        <mxCell id="jcBCAO0ZXmvhwiSaBV95-16" value="&lt;b&gt;&lt;font color=&quot;#990000&quot;&gt;PostgreSQL exporter &lt;/font&gt;&lt;/b&gt;&lt;i&gt;&lt;font color=&quot;#990000&quot;&gt;http://&amp;lt;host&amp;gt;:9187/metrics&lt;/font&gt;&lt;/i&gt;" style="text;strokeColor=none;align=center;fillColor=none;html=1;verticalAlign=middle;whiteSpace=wrap;rounded=0;" parent="1" vertex="1">
          <mxGeometry x="180" y="270" width="267.5" height="30" as="geometry" />
        </mxCell>
        <mxCell id="jcBCAO0ZXmvhwiSaBV95-17" value="&lt;font color=&quot;#990000&quot;&gt;&lt;b&gt;Node&lt;/b&gt;&lt;/font&gt;&lt;b&gt;&lt;font color=&quot;#990000&quot;&gt; exporter &lt;/font&gt;&lt;/b&gt;&lt;i&gt;&lt;font color=&quot;#990000&quot;&gt;http://&amp;lt;host&amp;gt;:9100/metrics&lt;/font&gt;&lt;/i&gt;" style="text;strokeColor=none;align=center;fillColor=none;html=1;verticalAlign=middle;whiteSpace=wrap;rounded=0;" parent="1" vertex="1">
          <mxGeometry x="296" y="90" width="235" height="30" as="geometry" />
        </mxCell>
        <mxCell id="jcBCAO0ZXmvhwiSaBV95-18" value="&lt;i&gt;&lt;font color=&quot;#990000&quot;&gt;http://&amp;lt;host&amp;gt;:9090/metrics&lt;/font&gt;&lt;/i&gt;" style="text;strokeColor=none;align=center;fillColor=none;html=1;verticalAlign=middle;whiteSpace=wrap;rounded=0;" parent="1" vertex="1">
          <mxGeometry x="450" y="240" width="170" height="30" as="geometry" />
        </mxCell>
        <mxCell id="jcBCAO0ZXmvhwiSaBV95-21" value="" style="curved=1;endArrow=classic;html=1;rounded=0;exitX=0;exitY=0.5;exitDx=0;exitDy=0;entryX=1;entryY=0.5;entryDx=0;entryDy=0;strokeColor=#051742;" parent="1" source="jcBCAO0ZXmvhwiSaBV95-2" target="jcBCAO0ZXmvhwiSaBV95-10" edge="1">
          <mxGeometry width="50" height="50" relative="1" as="geometry">
            <mxPoint x="390" y="250" as="sourcePoint" />
            <mxPoint x="440" y="200" as="targetPoint" />
            <Array as="points">
              <mxPoint x="510" y="80" />
              <mxPoint x="490" y="70" />
              <mxPoint x="470" y="70" />
              <mxPoint x="420" y="70" />
            </Array>
          </mxGeometry>
        </mxCell>
        <mxCell id="jcBCAO0ZXmvhwiSaBV95-22" value="" style="curved=1;endArrow=classic;html=1;rounded=0;exitX=0;exitY=0.5;exitDx=0;exitDy=0;entryX=1;entryY=0.5;entryDx=0;entryDy=0;strokeColor=#051742;" parent="1" source="jcBCAO0ZXmvhwiSaBV95-2" target="jcBCAO0ZXmvhwiSaBV95-8" edge="1">
          <mxGeometry width="50" height="50" relative="1" as="geometry">
            <mxPoint x="390" y="250" as="sourcePoint" />
            <mxPoint x="440" y="200" as="targetPoint" />
            <Array as="points">
              <mxPoint x="440" y="160" />
            </Array>
          </mxGeometry>
        </mxCell>
        <mxCell id="jcBCAO0ZXmvhwiSaBV95-23" value="" style="curved=1;endArrow=classic;html=1;rounded=0;exitX=0;exitY=0.5;exitDx=0;exitDy=0;entryX=1;entryY=0.5;entryDx=0;entryDy=0;strokeColor=#051742;" parent="1" source="jcBCAO0ZXmvhwiSaBV95-2" target="jcBCAO0ZXmvhwiSaBV95-9" edge="1">
          <mxGeometry width="50" height="50" relative="1" as="geometry">
            <mxPoint x="390" y="250" as="sourcePoint" />
            <mxPoint x="440" y="200" as="targetPoint" />
            <Array as="points">
              <mxPoint x="440" y="220" />
              <mxPoint x="390" y="220" />
            </Array>
          </mxGeometry>
        </mxCell>
        <mxCell id="jcBCAO0ZXmvhwiSaBV95-24" value="" style="curved=1;endArrow=classic;html=1;rounded=0;strokeColor=#051742;" parent="1" edge="1">
          <mxGeometry width="50" height="50" relative="1" as="geometry">
            <mxPoint x="520" y="180" as="sourcePoint" />
            <mxPoint x="510" y="230" as="targetPoint" />
            <Array as="points">
              <mxPoint x="390" y="200" />
            </Array>
          </mxGeometry>
        </mxCell>
      </root>
    </mxGraphModel>
  </diagram>
  <diagram id="c_w9_mtkq3gjR1q2yGgK" name="Page-10">
    <mxGraphModel dx="880" dy="429" grid="1" gridSize="10" guides="1" tooltips="1" connect="1" arrows="1" fold="1" page="1" pageScale="1" pageWidth="827" pageHeight="1169" math="0" shadow="0">
      <root>
        <mxCell id="0" />
        <mxCell id="1" parent="0" />
        <mxCell id="5X5N0F5A6l0hkvQeydjr-3" value="&lt;b&gt;12&lt;/b&gt;" style="ellipse;whiteSpace=wrap;html=1;aspect=fixed;strokeColor=#051742;strokeWidth=2;fontSize=12;fontColor=#051742;" parent="1" vertex="1">
          <mxGeometry x="381" y="167.5" width="65" height="65" as="geometry" />
        </mxCell>
        <mxCell id="5X5N0F5A6l0hkvQeydjr-5" value="&lt;b&gt;5&lt;/b&gt;" style="ellipse;whiteSpace=wrap;html=1;aspect=fixed;strokeColor=#051742;strokeWidth=2;fontSize=12;fontColor=#051742;" parent="1" vertex="1">
          <mxGeometry x="280" y="182.5" width="34.99" height="34.99" as="geometry" />
        </mxCell>
        <mxCell id="5X5N0F5A6l0hkvQeydjr-7" value="&lt;b&gt;1000&lt;/b&gt;" style="ellipse;whiteSpace=wrap;html=1;aspect=fixed;strokeColor=#051742;strokeWidth=2;fontSize=12;fontColor=#051742;" parent="1" vertex="1">
          <mxGeometry x="550" y="138.43" width="123.13" height="123.13" as="geometry" />
        </mxCell>
        <mxCell id="5X5N0F5A6l0hkvQeydjr-9" value="&lt;b&gt;10&lt;/b&gt;" style="ellipse;whiteSpace=wrap;html=1;aspect=fixed;strokeColor=#051742;strokeWidth=2;fontSize=12;fontColor=#051742;" parent="1" vertex="1">
          <mxGeometry x="320" y="175" width="50" height="50" as="geometry" />
        </mxCell>
        <mxCell id="5X5N0F5A6l0hkvQeydjr-10" value="&lt;b&gt;20&lt;/b&gt;" style="ellipse;whiteSpace=wrap;html=1;aspect=fixed;strokeColor=#051742;strokeWidth=2;fontSize=12;fontColor=#051742;" parent="1" vertex="1">
          <mxGeometry x="460" y="160" width="80" height="80" as="geometry" />
        </mxCell>
        <mxCell id="5X5N0F5A6l0hkvQeydjr-11" value="" style="endArrow=classic;html=1;rounded=0;strokeColor=#990000;strokeWidth=2;exitX=0.5;exitY=0;exitDx=0;exitDy=0;" parent="1" source="5X5N0F5A6l0hkvQeydjr-12" edge="1">
          <mxGeometry width="50" height="50" relative="1" as="geometry">
            <mxPoint x="414" y="280" as="sourcePoint" />
            <mxPoint x="414" y="240" as="targetPoint" />
          </mxGeometry>
        </mxCell>
        <mxCell id="5X5N0F5A6l0hkvQeydjr-12" value="&lt;font style=&quot;font-size: 12px;&quot;&gt;quantile 0,5 (médiane)&lt;/font&gt;" style="text;strokeColor=none;align=center;fillColor=none;html=1;verticalAlign=middle;whiteSpace=wrap;rounded=0;fontColor=#990000;fontStyle=1" parent="1" vertex="1">
          <mxGeometry x="344" y="290" width="140" height="30" as="geometry" />
        </mxCell>
      </root>
    </mxGraphModel>
  </diagram>
  <diagram id="D0ybd5NJr5fDpzwWCMTv" name="Page-6">
    <mxGraphModel dx="880" dy="429" grid="1" gridSize="10" guides="1" tooltips="1" connect="1" arrows="1" fold="1" page="1" pageScale="1" pageWidth="827" pageHeight="1169" math="0" shadow="0">
      <root>
        <mxCell id="0" />
        <mxCell id="1" parent="0" />
        <mxCell id="ZNlT44IaOl3GKhveXS4t-1" value="&lt;div style=&quot;font-size: 14px;&quot; align=&quot;left&quot;&gt;&lt;b&gt;&lt;font style=&quot;font-size: 14px;&quot;&gt;&lt;font color=&quot;#663300&quot;&gt;# HELP prometheus_http_requests_total Counter of HTTP requests.&lt;br&gt;# TYPE prometheus_http_requests_total counter&lt;/font&gt;&lt;br&gt;&lt;font color=&quot;#051742&quot;&gt;prometheus_http_requests_total&lt;/font&gt;&lt;font color=&quot;#990000&quot;&gt;{code=&quot;200&quot;,handler=&quot;/api/v1/query&quot;}&lt;/font&gt; 1&lt;br&gt;&lt;font color=&quot;#051742&quot;&gt;prometheus_http_requests_total&lt;/font&gt;&lt;font color=&quot;#990000&quot;&gt;{code=&quot;200&quot;,handler=&quot;/graph&quot;}&lt;/font&gt; 3&lt;br&gt;&lt;font color=&quot;#051742&quot;&gt;prometheus_http_requests_total&lt;/font&gt;&lt;font color=&quot;#990000&quot;&gt;{code=&quot;200&quot;,handler=&quot;/metrics&quot;}&lt;/font&gt; 19&lt;br&gt;&lt;font color=&quot;#051742&quot;&gt;prometheus_http_requests_tota&lt;font color=&quot;#660000&quot;&gt;l&lt;/font&gt;&lt;/font&gt;&lt;font color=&quot;#990000&quot;&gt;{code=&quot;302&quot;,handler=&quot;/&quot;}&lt;/font&gt; 4&lt;/font&gt;&lt;/b&gt;&lt;/div&gt;" style="rounded=0;whiteSpace=wrap;html=1;align=left;strokeColor=none;verticalAlign=top;" parent="1" vertex="1">
          <mxGeometry x="189" y="160" width="541" height="220" as="geometry" />
        </mxCell>
        <mxCell id="bqRjenPqDA1bM9JPa440-1" value="" style="rounded=0;whiteSpace=wrap;html=1;fontColor=#663300;labelBorderColor=none;labelBackgroundColor=none;fillColor=#663300;strokeColor=none;" parent="1" vertex="1">
          <mxGeometry x="189" y="300" width="30" height="10" as="geometry" />
        </mxCell>
        <mxCell id="bqRjenPqDA1bM9JPa440-2" value="" style="rounded=0;whiteSpace=wrap;html=1;strokeColor=none;fillColor=#051742;" parent="1" vertex="1">
          <mxGeometry x="189" y="320" width="30" height="10" as="geometry" />
        </mxCell>
        <mxCell id="bqRjenPqDA1bM9JPa440-3" value="" style="rounded=0;whiteSpace=wrap;html=1;strokeColor=none;fillColor=#990000;" parent="1" vertex="1">
          <mxGeometry x="189" y="340" width="30" height="10" as="geometry" />
        </mxCell>
        <mxCell id="hTmcDmZ61bmCUopZ30nC-1" value="&lt;div&gt;&lt;font color=&quot;#663300&quot;&gt;&lt;b&gt;En-tête&lt;/b&gt;&lt;/font&gt;&lt;/div&gt;" style="text;strokeColor=none;align=left;fillColor=none;html=1;verticalAlign=middle;whiteSpace=wrap;rounded=0;" parent="1" vertex="1">
          <mxGeometry x="220" y="295" width="140" height="20" as="geometry" />
        </mxCell>
        <mxCell id="hTmcDmZ61bmCUopZ30nC-2" value="&lt;div align=&quot;left&quot;&gt;&lt;font color=&quot;#051742&quot;&gt;&lt;span&gt;Nom&lt;br&gt;&lt;/span&gt;&lt;/font&gt;&lt;/div&gt;" style="text;strokeColor=none;align=left;fillColor=none;html=1;verticalAlign=middle;whiteSpace=wrap;rounded=0;fontStyle=1" parent="1" vertex="1">
          <mxGeometry x="220" y="315" width="30" height="20" as="geometry" />
        </mxCell>
        <mxCell id="hTmcDmZ61bmCUopZ30nC-3" value="&lt;font color=&quot;#990000&quot;&gt;Libellé&lt;/font&gt;" style="text;strokeColor=none;align=left;fillColor=none;html=1;verticalAlign=middle;whiteSpace=wrap;rounded=0;fontStyle=1" parent="1" vertex="1">
          <mxGeometry x="220" y="335" width="60" height="20" as="geometry" />
        </mxCell>
        <mxCell id="HNrg94el-0G9JDpimqg5-1" value="Valeur" style="text;strokeColor=none;align=left;fillColor=none;html=1;verticalAlign=middle;whiteSpace=wrap;rounded=0;fontStyle=1" parent="1" vertex="1">
          <mxGeometry x="220" y="355" width="91" height="20" as="geometry" />
        </mxCell>
        <mxCell id="HNrg94el-0G9JDpimqg5-2" value="" style="rounded=0;whiteSpace=wrap;html=1;strokeColor=none;fillColor=#000000;labelBackgroundColor=none;" parent="1" vertex="1">
          <mxGeometry x="189" y="360" width="30" height="10" as="geometry" />
        </mxCell>
      </root>
    </mxGraphModel>
  </diagram>
  <diagram id="m6cVFMBk8JDY1fDPM1WI" name="Page-9">
    <mxGraphModel dx="880" dy="429" grid="1" gridSize="10" guides="1" tooltips="1" connect="1" arrows="1" fold="1" page="1" pageScale="1" pageWidth="827" pageHeight="1169" math="0" shadow="0">
      <root>
        <mxCell id="0" />
        <mxCell id="1" parent="0" />
        <mxCell id="yPGcZ8D581tlXaFT8u_b-1" value="&lt;pre style=&quot;font-size: 14px;&quot;&gt;&lt;font style=&quot;font-size: 14px;&quot; face=&quot;Helvetica&quot;&gt;&lt;b&gt;&lt;font color=&quot;#663300&quot;&gt;# HELP prometheus_target_interval_length_seconds Actual intervals between scrapes.&lt;br&gt;# TYPE prometheus_target_interval_length_seconds summary&lt;/font&gt;&lt;br&gt;&lt;font color=&quot;#051742&quot;&gt;prometheus_target_interval_length_seconds&lt;/font&gt;&lt;font color=&quot;#990000&quot;&gt;{interval=&quot;15s&quot;,quantile=&quot;0.01&quot;}&lt;/font&gt; 14.99358332&lt;br&gt;&lt;font color=&quot;#051742&quot;&gt;prometheus_target_interval_length_seconds&lt;/font&gt;&lt;font color=&quot;#990000&quot;&gt;{interval=&quot;15s&quot;,quantile=&quot;0.05&quot;}&lt;/font&gt; 14.995579987&lt;br&gt;&lt;font color=&quot;#051742&quot;&gt;prometheus_target_interval_length_seconds&lt;/font&gt;&lt;font color=&quot;#990000&quot;&gt;{interval=&quot;15s&quot;,quantile=&quot;0.5&quot;}&lt;/font&gt; 15.000002523&lt;br&gt;&lt;font color=&quot;#051742&quot;&gt;prometheus_target_interval_length_seconds&lt;/font&gt;&lt;font color=&quot;#990000&quot;&gt;{interval=&quot;15s&quot;,quantile=&quot;0.9&quot;}&lt;/font&gt; 15.001752521&lt;br&gt;&lt;font color=&quot;#051742&quot;&gt;prometheus_target_interval_length_seconds&lt;/font&gt;&lt;font color=&quot;#990000&quot;&gt;{interval=&quot;15s&quot;,quantile=&quot;0.99&quot;}&lt;/font&gt; 15.005967891&lt;br&gt;&lt;font color=&quot;#051742&quot;&gt;prometheus_target_interval_length_seconds_sum&lt;/font&gt;&lt;font color=&quot;#990000&quot;&gt;{interval=&quot;15s&quot;}&lt;/font&gt; 14100.037034175017&lt;br&gt;&lt;font color=&quot;#051742&quot;&gt;prometheus_target_interval_length_seconds_count&lt;/font&gt;&lt;font color=&quot;#990000&quot;&gt;{interval=&quot;15s&quot;}&lt;/font&gt; 940&lt;/b&gt;&lt;/font&gt;&lt;/pre&gt;" style="text;whiteSpace=wrap;html=1;" parent="1" vertex="1">
          <mxGeometry x="90" y="405" width="640" height="180" as="geometry" />
        </mxCell>
      </root>
    </mxGraphModel>
  </diagram>
  <diagram id="lVpXYvEiQsxy2lStSHD3" name="Page-8">
    <mxGraphModel dx="880" dy="429" grid="1" gridSize="10" guides="1" tooltips="1" connect="1" arrows="1" fold="1" page="1" pageScale="1" pageWidth="827" pageHeight="1169" math="0" shadow="0">
      <root>
        <mxCell id="0" />
        <mxCell id="1" parent="0" />
        <mxCell id="OrFi4lJo1YNql7PS9mc4-1" value="&lt;pre style=&quot;font-size: 14px;&quot;&gt;&lt;font style=&quot;font-size: 14px;&quot; face=&quot;Helvetica&quot;&gt;&lt;b&gt;&lt;font style=&quot;font-size: 14px;&quot; color=&quot;#663300&quot;&gt;# HELP prometheus_http_request_duration_seconds Histogram of latencies for HTTP requests.&lt;br&gt;# TYPE prometheus_http_request_duration_seconds histogram&lt;/font&gt;&lt;br&gt;&lt;font color=&quot;#051742&quot;&gt;prometheus_http_request_duration_seconds_bucket&lt;/font&gt;&lt;font color=&quot;#990000&quot;&gt;{handler=&quot;/metrics&quot;,le=&quot;0.1&quot;}&lt;/font&gt; 309&lt;br&gt;&lt;font color=&quot;#051742&quot;&gt;prometheus_http_request_duration_seconds_bucket&lt;/font&gt;&lt;font color=&quot;#990000&quot;&gt;{handler=&quot;/metrics&quot;,le=&quot;0.2&quot;}&lt;/font&gt; 311&lt;br&gt;&lt;font color=&quot;#051742&quot;&gt;prometheus_http_request_duration_seconds_bucket&lt;/font&gt;&lt;font color=&quot;#990000&quot;&gt;{handler=&quot;/metrics&quot;,le=&quot;0.4&quot;}&lt;/font&gt; 311&lt;br&gt;&lt;font color=&quot;#051742&quot;&gt;prometheus_http_request_duration_seconds_bucket&lt;/font&gt;&lt;font color=&quot;#990000&quot;&gt;{handler=&quot;/metrics&quot;,le=&quot;1&quot;}&lt;/font&gt; 311&lt;br&gt;&lt;font color=&quot;#051742&quot;&gt;prometheus_http_request_duration_seconds_bucket&lt;/font&gt;&lt;font color=&quot;#990000&quot;&gt;{handler=&quot;/metrics&quot;,le=&quot;3&quot;}&lt;/font&gt; 311&lt;br&gt;&lt;font color=&quot;#051742&quot;&gt;prometheus_http_request_duration_seconds_bucket&lt;/font&gt;&lt;font color=&quot;#990000&quot;&gt;{handler=&quot;/metrics&quot;,le=&quot;8&quot;}&lt;/font&gt; 311&lt;br&gt;&lt;font color=&quot;#051742&quot;&gt;prometheus_http_request_duration_seconds_bucket&lt;/font&gt;&lt;font color=&quot;#990000&quot;&gt;{handler=&quot;/metrics&quot;,le=&quot;20&quot;}&lt;/font&gt; 311&lt;br&gt;&lt;font color=&quot;#051742&quot;&gt;prometheus_http_request_duration_seconds_bucket&lt;/font&gt;&lt;font color=&quot;#990000&quot;&gt;{handler=&quot;/metrics&quot;,le=&quot;60&quot;}&lt;/font&gt; 311&lt;br&gt;&lt;font color=&quot;#051742&quot;&gt;prometheus_http_request_duration_seconds_bucket&lt;/font&gt;&lt;font color=&quot;#990000&quot;&gt;{handler=&quot;/metrics&quot;,le=&quot;120&quot;}&lt;/font&gt; 311&lt;br&gt;&lt;font color=&quot;#051742&quot;&gt;prometheus_http_request_duration_seconds_bucket&lt;/font&gt;&lt;font color=&quot;#990000&quot;&gt;{handler=&quot;/metrics&quot;,le=&quot;+Inf&quot;}&lt;/font&gt; 311&lt;br&gt;&lt;font color=&quot;#051742&quot;&gt;prometheus_http_request_duration_seconds_sum&lt;/font&gt;&lt;font color=&quot;#990000&quot;&gt;{handler=&quot;/metrics&quot;}&lt;/font&gt; 1.5479550379999987&lt;br&gt;&lt;font color=&quot;#051742&quot;&gt;prometheus_http_request_duration_seconds_count&lt;/font&gt;&lt;font color=&quot;#990000&quot;&gt;{handler=&quot;/metrics&quot;}&lt;/font&gt; 311&lt;/b&gt;&lt;/font&gt;&lt;/pre&gt;" style="text;whiteSpace=wrap;html=1;" parent="1" vertex="1">
          <mxGeometry x="90" y="100" width="670" height="280" as="geometry" />
        </mxCell>
      </root>
    </mxGraphModel>
  </diagram>
  <diagram id="RRfJovPogFQYaNKrt2Nw" name="Page-7">
    <mxGraphModel dx="880" dy="429" grid="1" gridSize="10" guides="1" tooltips="1" connect="1" arrows="1" fold="1" page="1" pageScale="1" pageWidth="827" pageHeight="1169" math="0" shadow="0">
      <root>
        <mxCell id="0" />
        <mxCell id="1" parent="0" />
        <mxCell id="5Xy_iaV5nLt-YdcAp8X8-1" value="&lt;div style=&quot;font-size: 14px;&quot; align=&quot;left&quot;&gt;&lt;b&gt;&lt;font style=&quot;font-size: 14px;&quot;&gt;&lt;font color=&quot;#663300&quot;&gt;# &lt;/font&gt;&lt;/font&gt;&lt;/b&gt;&lt;b&gt;&lt;font color=&quot;#663300&quot;&gt;HELP process_resident_memory_bytes Resident memory size in bytes.&lt;/font&gt;&lt;/b&gt;&lt;/div&gt;&lt;div style=&quot;font-size: 14px;&quot; align=&quot;left&quot;&gt;&lt;b&gt;&lt;font style=&quot;font-size: 14px;&quot;&gt;&lt;font color=&quot;#663300&quot;&gt;# TYPE &lt;/font&gt;&lt;/font&gt;&lt;/b&gt;&lt;b&gt;&lt;font color=&quot;#663300&quot;&gt;process_resident_memory_bytes&lt;/font&gt;&lt;/b&gt;&lt;b&gt;&lt;font style=&quot;font-size: 14px;&quot;&gt;&lt;font color=&quot;#663300&quot;&gt; gauge&lt;/font&gt;&lt;/font&gt;&lt;/b&gt;&lt;b&gt;&lt;font color=&quot;#051742&quot;&gt;&lt;br&gt;&lt;/font&gt;&lt;/b&gt;&lt;/div&gt;&lt;div style=&quot;font-size: 14px;&quot; align=&quot;left&quot;&gt;&lt;b&gt;&lt;font color=&quot;#051742&quot;&gt;process_resident_memory_bytes&lt;/font&gt;&lt;/b&gt;&lt;b&gt; 8.8567808e+07&lt;/b&gt;&lt;br&gt;&lt;/div&gt;&lt;div style=&quot;font-size: 14px;&quot; align=&quot;left&quot;&gt;&lt;b&gt;&lt;font color=&quot;#663300&quot;&gt;# HELP process_start_time_seconds Start time of the process since unix epoch in seconds.&lt;br&gt;&lt;/font&gt;&lt;/b&gt;&lt;/div&gt;&lt;div style=&quot;font-size: 14px;&quot; align=&quot;left&quot;&gt;&lt;b&gt;&lt;font color=&quot;#663300&quot;&gt;# TYPE process_start_time_seconds gauge&lt;/font&gt;&lt;/b&gt;&lt;b&gt;&lt;br&gt;&lt;/b&gt;&lt;/div&gt;&lt;div style=&quot;font-size: 14px;&quot; align=&quot;left&quot;&gt;&lt;b&gt;&lt;font color=&quot;#051742&quot;&gt;process_start_time_seconds&lt;/font&gt; 1.68209887761e+09&lt;/b&gt;&lt;/div&gt;" style="rounded=0;whiteSpace=wrap;html=1;align=left;strokeColor=none;verticalAlign=top;" parent="1" vertex="1">
          <mxGeometry x="90" y="160" width="630" height="110" as="geometry" />
        </mxCell>
      </root>
    </mxGraphModel>
  </diagram>
  <diagram id="qd37TjFjFxUfgRJ9fa-Z" name="Page-3">
    <mxGraphModel dx="880" dy="429" grid="1" gridSize="10" guides="1" tooltips="1" connect="1" arrows="1" fold="1" page="1" pageScale="1" pageWidth="827" pageHeight="1169" math="0" shadow="0">
      <root>
        <mxCell id="0" />
        <mxCell id="1" parent="0" />
        <mxCell id="JrjyLZsLg6AYIlVoNyLW-1" value="" style="endArrow=classic;html=1;rounded=0;strokeColor=#051742;strokeWidth=2;fontSize=10;fontColor=#051742;startArrow=none;" parent="1" source="JrjyLZsLg6AYIlVoNyLW-7" edge="1">
          <mxGeometry width="50" height="50" relative="1" as="geometry">
            <mxPoint x="180" y="200" as="sourcePoint" />
            <mxPoint x="610" y="200" as="targetPoint" />
          </mxGeometry>
        </mxCell>
        <mxCell id="JrjyLZsLg6AYIlVoNyLW-2" value="&lt;font style=&quot;font-size: 14px;&quot;&gt;t&lt;/font&gt;" style="text;html=1;resizable=0;autosize=1;align=center;verticalAlign=middle;points=[];fillColor=none;strokeColor=none;rounded=0;strokeWidth=2;fontSize=10;fontColor=#051742;fontStyle=1" parent="1" vertex="1">
          <mxGeometry x="580" y="195" width="30" height="30" as="geometry" />
        </mxCell>
        <mxCell id="JrjyLZsLg6AYIlVoNyLW-3" value="&lt;font style=&quot;font-size: 14px;&quot;&gt;&lt;b&gt;48&lt;/b&gt;&lt;/font&gt;" style="ellipse;whiteSpace=wrap;html=1;aspect=fixed;strokeColor=#051742;strokeWidth=2;fontSize=12;fontColor=#051742;" parent="1" vertex="1">
          <mxGeometry x="220" y="165" width="70" height="70" as="geometry" />
        </mxCell>
        <mxCell id="JrjyLZsLg6AYIlVoNyLW-4" value="" style="endArrow=none;html=1;rounded=0;strokeColor=#051742;strokeWidth=2;fontSize=10;fontColor=#051742;" parent="1" target="JrjyLZsLg6AYIlVoNyLW-3" edge="1">
          <mxGeometry width="50" height="50" relative="1" as="geometry">
            <mxPoint x="200" y="200" as="sourcePoint" />
            <mxPoint x="660" y="200" as="targetPoint" />
          </mxGeometry>
        </mxCell>
        <mxCell id="JrjyLZsLg6AYIlVoNyLW-5" value="&lt;font style=&quot;font-size: 14px;&quot;&gt;&lt;b&gt;40&lt;/b&gt;&lt;/font&gt;" style="ellipse;whiteSpace=wrap;html=1;aspect=fixed;strokeColor=#051742;strokeWidth=2;fontSize=12;fontColor=#051742;" parent="1" vertex="1">
          <mxGeometry x="360" y="175" width="50" height="50" as="geometry" />
        </mxCell>
        <mxCell id="JrjyLZsLg6AYIlVoNyLW-6" value="" style="endArrow=none;html=1;rounded=0;strokeColor=#051742;strokeWidth=2;fontSize=10;fontColor=#051742;startArrow=none;" parent="1" source="JrjyLZsLg6AYIlVoNyLW-3" target="JrjyLZsLg6AYIlVoNyLW-5" edge="1">
          <mxGeometry width="50" height="50" relative="1" as="geometry">
            <mxPoint x="280" y="200" as="sourcePoint" />
            <mxPoint x="660" y="200" as="targetPoint" />
          </mxGeometry>
        </mxCell>
        <mxCell id="JrjyLZsLg6AYIlVoNyLW-7" value="&lt;font style=&quot;font-size: 14px;&quot;&gt;&lt;b&gt;60&lt;/b&gt;&lt;/font&gt;" style="ellipse;whiteSpace=wrap;html=1;aspect=fixed;strokeColor=#051742;strokeWidth=2;fontSize=12;fontColor=#051742;" parent="1" vertex="1">
          <mxGeometry x="480" y="156.88" width="86.25" height="86.25" as="geometry" />
        </mxCell>
        <mxCell id="JrjyLZsLg6AYIlVoNyLW-8" value="" style="endArrow=none;html=1;rounded=0;strokeColor=#051742;strokeWidth=2;fontSize=10;fontColor=#051742;startArrow=none;" parent="1" source="JrjyLZsLg6AYIlVoNyLW-5" target="JrjyLZsLg6AYIlVoNyLW-7" edge="1">
          <mxGeometry width="50" height="50" relative="1" as="geometry">
            <mxPoint x="410" y="200" as="sourcePoint" />
            <mxPoint x="610" y="200" as="targetPoint" />
          </mxGeometry>
        </mxCell>
      </root>
    </mxGraphModel>
  </diagram>
  <diagram id="rHDOW-f8HznLa0C3nBQI" name="Page-2">
    <mxGraphModel dx="880" dy="429" grid="1" gridSize="10" guides="1" tooltips="1" connect="1" arrows="1" fold="1" page="1" pageScale="1" pageWidth="827" pageHeight="1169" math="0" shadow="0">
      <root>
        <mxCell id="0" />
        <mxCell id="1" parent="0" />
        <mxCell id="T6DFpon_OGkObLBLiJBU-1" value="" style="endArrow=classic;html=1;rounded=0;strokeColor=#051742;strokeWidth=2;fontSize=10;fontColor=#051742;startArrow=none;" parent="1" source="T6DFpon_OGkObLBLiJBU-5" edge="1">
          <mxGeometry width="50" height="50" relative="1" as="geometry">
            <mxPoint x="180" y="200" as="sourcePoint" />
            <mxPoint x="610" y="200" as="targetPoint" />
          </mxGeometry>
        </mxCell>
        <mxCell id="T6DFpon_OGkObLBLiJBU-2" value="&lt;font style=&quot;font-size: 14px;&quot;&gt;t&lt;/font&gt;" style="text;html=1;resizable=0;autosize=1;align=center;verticalAlign=middle;points=[];fillColor=none;strokeColor=none;rounded=0;strokeWidth=2;fontSize=10;fontColor=#051742;fontStyle=1" parent="1" vertex="1">
          <mxGeometry x="580" y="195" width="30" height="30" as="geometry" />
        </mxCell>
        <mxCell id="T6DFpon_OGkObLBLiJBU-3" value="&lt;font style=&quot;font-size: 14px;&quot;&gt;&lt;b&gt;5&lt;/b&gt;&lt;/font&gt;" style="ellipse;whiteSpace=wrap;html=1;aspect=fixed;strokeColor=#051742;strokeWidth=2;fontSize=12;fontColor=#051742;" parent="1" vertex="1">
          <mxGeometry x="240" y="180" width="40" height="40" as="geometry" />
        </mxCell>
        <mxCell id="T6DFpon_OGkObLBLiJBU-4" value="" style="endArrow=none;html=1;rounded=0;strokeColor=#051742;strokeWidth=2;fontSize=10;fontColor=#051742;" parent="1" target="T6DFpon_OGkObLBLiJBU-3" edge="1">
          <mxGeometry width="50" height="50" relative="1" as="geometry">
            <mxPoint x="200" y="200" as="sourcePoint" />
            <mxPoint x="660" y="200" as="targetPoint" />
          </mxGeometry>
        </mxCell>
        <mxCell id="T6DFpon_OGkObLBLiJBU-5" value="&lt;font style=&quot;font-size: 14px;&quot;&gt;&lt;b&gt;7&lt;/b&gt;&lt;/font&gt;" style="ellipse;whiteSpace=wrap;html=1;aspect=fixed;strokeColor=#051742;strokeWidth=2;fontSize=12;fontColor=#051742;" parent="1" vertex="1">
          <mxGeometry x="360" y="175" width="50" height="50" as="geometry" />
        </mxCell>
        <mxCell id="T6DFpon_OGkObLBLiJBU-6" value="" style="endArrow=none;html=1;rounded=0;strokeColor=#051742;strokeWidth=2;fontSize=10;fontColor=#051742;startArrow=none;" parent="1" source="T6DFpon_OGkObLBLiJBU-3" target="T6DFpon_OGkObLBLiJBU-5" edge="1">
          <mxGeometry width="50" height="50" relative="1" as="geometry">
            <mxPoint x="280" y="200" as="sourcePoint" />
            <mxPoint x="660" y="200" as="targetPoint" />
          </mxGeometry>
        </mxCell>
        <mxCell id="T6DFpon_OGkObLBLiJBU-7" value="&lt;b&gt;&lt;font style=&quot;font-size: 14px;&quot;&gt;15&lt;/font&gt;&lt;/b&gt;" style="ellipse;whiteSpace=wrap;html=1;aspect=fixed;strokeColor=#051742;strokeWidth=2;fontSize=12;fontColor=#051742;" parent="1" vertex="1">
          <mxGeometry x="490" y="167.5" width="65" height="65" as="geometry" />
        </mxCell>
      </root>
    </mxGraphModel>
  </diagram>
  <diagram id="Zdx6ejiypF8wbNtiKwUu" name="Page-5">
    <mxGraphModel dx="880" dy="429" grid="1" gridSize="10" guides="1" tooltips="1" connect="1" arrows="1" fold="1" page="1" pageScale="1" pageWidth="827" pageHeight="1169" math="0" shadow="0">
      <root>
        <mxCell id="0" />
        <mxCell id="1" parent="0" />
        <mxCell id="s6otokFng0yCJVJC5YvR-5" value="&lt;div&gt;200ms&lt;/div&gt;" style="rounded=0;whiteSpace=wrap;html=1;strokeColor=#051742;strokeWidth=2;fontColor=#051742;fontStyle=1" parent="1" vertex="1">
          <mxGeometry x="285" y="110" width="60" height="35" as="geometry" />
        </mxCell>
        <mxCell id="s6otokFng0yCJVJC5YvR-13" value="quantile 0.5 (médiane) " style="text;html=1;resizable=0;autosize=1;align=center;verticalAlign=middle;points=[];fillColor=none;strokeColor=none;rounded=0;strokeWidth=2;fontColor=#051742;fontStyle=1" parent="1" vertex="1">
          <mxGeometry x="140" y="112.5" width="150" height="30" as="geometry" />
        </mxCell>
        <mxCell id="s6otokFng0yCJVJC5YvR-17" value="quantile 0.9 " style="text;html=1;resizable=0;autosize=1;align=center;verticalAlign=middle;points=[];fillColor=none;strokeColor=none;rounded=0;strokeWidth=2;fontColor=#051742;fontStyle=1" parent="1" vertex="1">
          <mxGeometry x="195" y="162.5" width="90" height="30" as="geometry" />
        </mxCell>
        <mxCell id="s6otokFng0yCJVJC5YvR-18" value="quantile 0.99 " style="text;html=1;resizable=0;autosize=1;align=center;verticalAlign=middle;points=[];fillColor=none;strokeColor=none;rounded=0;strokeWidth=2;fontColor=#051742;fontStyle=1" parent="1" vertex="1">
          <mxGeometry x="190" y="207.5" width="100" height="30" as="geometry" />
        </mxCell>
        <mxCell id="s6otokFng0yCJVJC5YvR-19" value="&lt;div&gt;600ms&lt;/div&gt;" style="rounded=0;whiteSpace=wrap;html=1;strokeColor=#051742;strokeWidth=2;fontColor=#051742;fontStyle=1" parent="1" vertex="1">
          <mxGeometry x="285" y="160" width="60" height="35" as="geometry" />
        </mxCell>
        <mxCell id="s6otokFng0yCJVJC5YvR-20" value="&lt;div&gt;680ms&lt;/div&gt;" style="rounded=0;whiteSpace=wrap;html=1;strokeColor=#051742;strokeWidth=2;fontColor=#051742;fontStyle=1" parent="1" vertex="1">
          <mxGeometry x="285" y="205" width="60" height="35" as="geometry" />
        </mxCell>
        <mxCell id="HOKwqJM0252HIq7N3Tph-1" value="" style="endArrow=classic;html=1;rounded=0;strokeWidth=2;strokeColor=#051742;" parent="1" edge="1">
          <mxGeometry width="50" height="50" relative="1" as="geometry">
            <mxPoint x="180" y="280" as="sourcePoint" />
            <mxPoint x="640" y="280" as="targetPoint" />
          </mxGeometry>
        </mxCell>
        <mxCell id="HOKwqJM0252HIq7N3Tph-7" value="&lt;div&gt;189ms&lt;/div&gt;" style="rounded=0;whiteSpace=wrap;html=1;strokeColor=#051742;strokeWidth=2;fontColor=#051742;fontStyle=1" parent="1" vertex="1">
          <mxGeometry x="535" y="107.5" width="60" height="35" as="geometry" />
        </mxCell>
        <mxCell id="HOKwqJM0252HIq7N3Tph-8" value="q 0.5&amp;nbsp; " style="text;html=1;resizable=0;autosize=1;align=center;verticalAlign=middle;points=[];fillColor=none;strokeColor=none;rounded=0;strokeWidth=2;fontColor=#051742;fontStyle=1" parent="1" vertex="1">
          <mxGeometry x="490" y="112.5" width="50" height="30" as="geometry" />
        </mxCell>
        <mxCell id="HOKwqJM0252HIq7N3Tph-9" value="q&amp;nbsp; 0.9&amp;nbsp; " style="text;html=1;resizable=0;autosize=1;align=center;verticalAlign=middle;points=[];fillColor=none;strokeColor=none;rounded=0;strokeWidth=2;fontColor=#051742;fontStyle=1" parent="1" vertex="1">
          <mxGeometry x="485" y="160" width="60" height="30" as="geometry" />
        </mxCell>
        <mxCell id="HOKwqJM0252HIq7N3Tph-10" value="q 0.99 " style="text;html=1;resizable=0;autosize=1;align=center;verticalAlign=middle;points=[];fillColor=none;strokeColor=none;rounded=0;strokeWidth=2;fontColor=#051742;fontStyle=1" parent="1" vertex="1">
          <mxGeometry x="480" y="205" width="60" height="30" as="geometry" />
        </mxCell>
        <mxCell id="HOKwqJM0252HIq7N3Tph-11" value="&lt;div&gt;550ms&lt;/div&gt;" style="rounded=0;whiteSpace=wrap;html=1;strokeColor=#051742;strokeWidth=2;fontColor=#051742;fontStyle=1" parent="1" vertex="1">
          <mxGeometry x="535" y="157.5" width="60" height="35" as="geometry" />
        </mxCell>
        <mxCell id="HOKwqJM0252HIq7N3Tph-12" value="&lt;div&gt;650ms&lt;/div&gt;" style="rounded=0;whiteSpace=wrap;html=1;strokeColor=#051742;strokeWidth=2;fontColor=#051742;fontStyle=1" parent="1" vertex="1">
          <mxGeometry x="535" y="202.5" width="60" height="35" as="geometry" />
        </mxCell>
        <mxCell id="hT5sLMA_pSl2PSzXL1E1-3" value="&lt;font style=&quot;font-size: 14px;&quot;&gt;t&lt;/font&gt;" style="text;html=1;resizable=0;autosize=1;align=center;verticalAlign=middle;points=[];fillColor=none;strokeColor=none;rounded=0;strokeWidth=2;fontSize=10;fontColor=#051742;fontStyle=1;labelBackgroundColor=default;" parent="1" vertex="1">
          <mxGeometry x="610" y="280" width="30" height="30" as="geometry" />
        </mxCell>
      </root>
    </mxGraphModel>
  </diagram>
  <diagram id="guZE8Qsm1I0V-Gjek5t3" name="Page-4">
    <mxGraphModel dx="880" dy="429" grid="1" gridSize="10" guides="1" tooltips="1" connect="1" arrows="1" fold="1" page="1" pageScale="1" pageWidth="827" pageHeight="1169" math="0" shadow="0">
      <root>
        <mxCell id="0" />
        <mxCell id="1" parent="0" />
        <mxCell id="fOV-zhfu4x2tnz5ew5nv-1" value="" style="endArrow=classic;html=1;rounded=0;strokeColor=#051742;strokeWidth=2;" parent="1" edge="1">
          <mxGeometry width="50" height="50" relative="1" as="geometry">
            <mxPoint x="200" y="280" as="sourcePoint" />
            <mxPoint x="560" y="280" as="targetPoint" />
          </mxGeometry>
        </mxCell>
        <mxCell id="fOV-zhfu4x2tnz5ew5nv-2" value="" style="endArrow=classic;html=1;rounded=0;strokeColor=#051742;strokeWidth=2;" parent="1" edge="1">
          <mxGeometry width="50" height="50" relative="1" as="geometry">
            <mxPoint x="200" y="280" as="sourcePoint" />
            <mxPoint x="200" y="40" as="targetPoint" />
          </mxGeometry>
        </mxCell>
        <mxCell id="_o-T06rqC8xUBpIjH-js-1" value="&lt;font style=&quot;font-size: 14px;&quot;&gt;&lt;b&gt;&lt;font style=&quot;font-size: 14px;&quot; color=&quot;#051742&quot;&gt;5&lt;/font&gt;&lt;/b&gt;&lt;/font&gt;" style="rounded=0;whiteSpace=wrap;html=1;strokeColor=#051742;strokeWidth=2;" parent="1" vertex="1">
          <mxGeometry x="200" y="190" width="70" height="90" as="geometry" />
        </mxCell>
        <mxCell id="_o-T06rqC8xUBpIjH-js-5" value="&lt;font style=&quot;font-size: 14px;&quot;&gt;&lt;b&gt;&lt;font style=&quot;font-size: 14px;&quot; color=&quot;#051742&quot;&gt;10&lt;/font&gt;&lt;/b&gt;&lt;/font&gt;" style="rounded=0;whiteSpace=wrap;html=1;strokeWidth=2;strokeColor=#051742;" parent="1" vertex="1">
          <mxGeometry x="270" y="110" width="80" height="170" as="geometry" />
        </mxCell>
        <mxCell id="_o-T06rqC8xUBpIjH-js-6" value="&lt;font style=&quot;font-size: 14px;&quot;&gt;&lt;b&gt;&lt;font style=&quot;font-size: 14px;&quot; color=&quot;#051742&quot;&gt;7&lt;/font&gt;&lt;/b&gt;&lt;/font&gt;" style="rounded=0;whiteSpace=wrap;html=1;strokeWidth=2;" parent="1" vertex="1">
          <mxGeometry x="350" y="160" width="70" height="120" as="geometry" />
        </mxCell>
        <mxCell id="_o-T06rqC8xUBpIjH-js-7" value="&lt;font style=&quot;font-size: 14px;&quot;&gt;&lt;b&gt;&lt;font style=&quot;font-size: 14px;&quot; color=&quot;#051742&quot;&gt;2&lt;/font&gt;&lt;/b&gt;&lt;/font&gt;" style="rounded=0;whiteSpace=wrap;html=1;strokeWidth=2;" parent="1" vertex="1">
          <mxGeometry x="420" y="250" width="120" height="30" as="geometry" />
        </mxCell>
        <mxCell id="_o-T06rqC8xUBpIjH-js-9" value="&lt;b&gt;0,5&lt;/b&gt;" style="text;html=1;resizable=0;autosize=1;align=center;verticalAlign=middle;points=[];fillColor=none;strokeColor=none;rounded=0;strokeWidth=2;fontColor=#051742;" parent="1" vertex="1">
          <mxGeometry x="245" y="280" width="40" height="30" as="geometry" />
        </mxCell>
        <mxCell id="_o-T06rqC8xUBpIjH-js-10" value="&lt;b&gt;1&lt;/b&gt;" style="text;html=1;resizable=0;autosize=1;align=center;verticalAlign=middle;points=[];fillColor=none;strokeColor=none;rounded=0;strokeWidth=2;fontColor=#051742;" parent="1" vertex="1">
          <mxGeometry x="330" y="280" width="30" height="30" as="geometry" />
        </mxCell>
        <mxCell id="_o-T06rqC8xUBpIjH-js-11" value="&lt;b&gt;1,5&lt;/b&gt;" style="text;html=1;resizable=0;autosize=1;align=center;verticalAlign=middle;points=[];fillColor=none;strokeColor=none;rounded=0;strokeWidth=2;fontColor=#051742;" parent="1" vertex="1">
          <mxGeometry x="395" y="280" width="40" height="30" as="geometry" />
        </mxCell>
        <mxCell id="_o-T06rqC8xUBpIjH-js-12" value="&lt;b&gt;+Inf&lt;/b&gt;" style="text;html=1;resizable=0;autosize=1;align=center;verticalAlign=middle;points=[];fillColor=none;strokeColor=none;rounded=0;strokeWidth=2;fontColor=#051742;" parent="1" vertex="1">
          <mxGeometry x="510" y="280" width="50" height="30" as="geometry" />
        </mxCell>
        <mxCell id="_o-T06rqC8xUBpIjH-js-13" value="Secondes" style="text;html=1;resizable=0;autosize=1;align=center;verticalAlign=middle;points=[];fillColor=none;strokeColor=none;rounded=0;strokeWidth=2;fontColor=#051742;" parent="1" vertex="1">
          <mxGeometry x="345" y="300" width="80" height="30" as="geometry" />
        </mxCell>
        <mxCell id="_o-T06rqC8xUBpIjH-js-14" value="Nb requêtes" style="text;html=1;resizable=0;autosize=1;align=center;verticalAlign=middle;points=[];fillColor=none;strokeColor=none;rounded=0;strokeWidth=2;fontColor=#051742;" parent="1" vertex="1">
          <mxGeometry x="110" y="150" width="90" height="30" as="geometry" />
        </mxCell>
        <mxCell id="K4KsXmKlG54sCTfjC5a7-1" value="&lt;b&gt;0&lt;/b&gt;" style="text;html=1;resizable=0;autosize=1;align=center;verticalAlign=middle;points=[];fillColor=none;strokeColor=none;rounded=0;strokeWidth=2;fontColor=#051742;" parent="1" vertex="1">
          <mxGeometry x="185" y="280" width="30" height="30" as="geometry" />
        </mxCell>
      </root>
    </mxGraphModel>
  </diagram>
  <diagram id="YzIf677C1zf8RB1hHDTL" name="Page-1">
    <mxGraphModel dx="880" dy="429" grid="1" gridSize="10" guides="1" tooltips="1" connect="1" arrows="1" fold="1" page="1" pageScale="1" pageWidth="827" pageHeight="1169" math="0" shadow="0">
      <root>
        <mxCell id="0" />
        <mxCell id="1" parent="0" />
        <mxCell id="qXOiCNyYud0SAGBclQPF-1" value="&lt;div align=&quot;center&quot;&gt;&lt;b&gt;&lt;font style=&quot;font-size: 18px;&quot; color=&quot;#051742&quot;&gt;&amp;nbsp;Prometheus&lt;/font&gt;&lt;/b&gt;&lt;/div&gt;" style="whiteSpace=wrap;html=1;aspect=fixed;strokeColor=#051742;strokeWidth=3;align=center;verticalAlign=top;" parent="1" vertex="1">
          <mxGeometry x="354" y="110" width="166" height="166" as="geometry" />
        </mxCell>
        <mxCell id="8F8h1WCyKU_KMm5QtPAq-1" value="" style="endArrow=classic;html=1;rounded=0;fontSize=18;fontColor=#051742;exitX=0;exitY=0.5;exitDx=0;exitDy=0;strokeColor=#051742;strokeWidth=2;entryX=1;entryY=0.5;entryDx=0;entryDy=0;" parent="1" source="qXOiCNyYud0SAGBclQPF-1" target="8F8h1WCyKU_KMm5QtPAq-3" edge="1">
          <mxGeometry width="50" height="50" relative="1" as="geometry">
            <mxPoint x="230" y="180" as="sourcePoint" />
            <mxPoint x="220" y="120" as="targetPoint" />
          </mxGeometry>
        </mxCell>
        <mxCell id="8F8h1WCyKU_KMm5QtPAq-2" value="" style="endArrow=classic;html=1;rounded=0;fontSize=18;fontColor=#051742;strokeColor=#051742;strokeWidth=2;exitX=0;exitY=0.5;exitDx=0;exitDy=0;entryX=1;entryY=0.5;entryDx=0;entryDy=0;" parent="1" source="qXOiCNyYud0SAGBclQPF-1" target="8F8h1WCyKU_KMm5QtPAq-4" edge="1">
          <mxGeometry width="50" height="50" relative="1" as="geometry">
            <mxPoint x="350" y="180" as="sourcePoint" />
            <mxPoint x="220" y="240" as="targetPoint" />
          </mxGeometry>
        </mxCell>
        <mxCell id="8F8h1WCyKU_KMm5QtPAq-3" value="&lt;font style=&quot;font-size: 16px;&quot;&gt;Application 1&lt;/font&gt;" style="rounded=0;whiteSpace=wrap;html=1;strokeColor=#051742;strokeWidth=3;fontSize=18;fontColor=#051742;" parent="1" vertex="1">
          <mxGeometry x="100" y="110" width="120" height="60" as="geometry" />
        </mxCell>
        <mxCell id="8F8h1WCyKU_KMm5QtPAq-4" value="&lt;font style=&quot;font-size: 16px;&quot;&gt;Application 2&lt;/font&gt;" style="rounded=0;whiteSpace=wrap;html=1;strokeColor=#051742;strokeWidth=3;fontSize=18;fontColor=#051742;" parent="1" vertex="1">
          <mxGeometry x="100" y="216" width="120" height="60" as="geometry" />
        </mxCell>
        <mxCell id="8F8h1WCyKU_KMm5QtPAq-5" value="Grafana" style="rounded=0;whiteSpace=wrap;html=1;strokeColor=#051742;strokeWidth=3;fontSize=16;fontColor=#051742;" parent="1" vertex="1">
          <mxGeometry x="660" y="196" width="110" height="58" as="geometry" />
        </mxCell>
        <mxCell id="8F8h1WCyKU_KMm5QtPAq-6" value="" style="endArrow=classic;html=1;rounded=0;strokeColor=#051742;strokeWidth=2;fontSize=16;fontColor=#051742;exitX=0;exitY=0.5;exitDx=0;exitDy=0;entryX=1;entryY=0.5;entryDx=0;entryDy=0;" parent="1" source="8F8h1WCyKU_KMm5QtPAq-5" target="8F8h1WCyKU_KMm5QtPAq-19" edge="1">
          <mxGeometry width="50" height="50" relative="1" as="geometry">
            <mxPoint x="580" y="183" as="sourcePoint" />
            <mxPoint x="510" y="183" as="targetPoint" />
          </mxGeometry>
        </mxCell>
        <mxCell id="8F8h1WCyKU_KMm5QtPAq-14" value="&lt;div&gt;TSDB&lt;/div&gt;" style="strokeWidth=1;html=1;shape=mxgraph.flowchart.database;whiteSpace=wrap;strokeColor=#051742;fontSize=10;fontColor=#051742;verticalAlign=middle;" parent="1" vertex="1">
          <mxGeometry x="366.75" y="166" width="33.25" height="50" as="geometry" />
        </mxCell>
        <mxCell id="8F8h1WCyKU_KMm5QtPAq-17" value="WEB UI&lt;span style=&quot;white-space: pre;&quot;&gt;&lt;/span&gt;" style="rounded=1;whiteSpace=wrap;html=1;strokeColor=#051742;strokeWidth=1;fontSize=10;fontColor=#051742;" parent="1" vertex="1">
          <mxGeometry x="470" y="151" width="60" height="30" as="geometry" />
        </mxCell>
        <mxCell id="8F8h1WCyKU_KMm5QtPAq-18" value="&lt;div&gt;PromQL&lt;/div&gt;" style="rounded=1;whiteSpace=wrap;html=1;strokeColor=#051742;strokeWidth=1;fontSize=10;fontColor=#051742;" parent="1" vertex="1">
          <mxGeometry x="400" y="181" width="50" height="24" as="geometry" />
        </mxCell>
        <mxCell id="8F8h1WCyKU_KMm5QtPAq-19" value="API REST" style="rounded=1;whiteSpace=wrap;html=1;strokeColor=#051742;strokeWidth=1;fontSize=10;fontColor=#051742;" parent="1" vertex="1">
          <mxGeometry x="470" y="210" width="60" height="30" as="geometry" />
        </mxCell>
        <mxCell id="8F8h1WCyKU_KMm5QtPAq-28" value="" style="shape=actor;whiteSpace=wrap;html=1;strokeColor=#051742;strokeWidth=2;fontSize=10;fontColor=#051742;" parent="1" vertex="1">
          <mxGeometry x="695" y="110" width="40" height="60" as="geometry" />
        </mxCell>
        <mxCell id="8F8h1WCyKU_KMm5QtPAq-29" value="" style="endArrow=classic;html=1;rounded=0;strokeColor=#051742;strokeWidth=2;fontSize=10;fontColor=#051742;dashed=1;dashPattern=1 1;edgeStyle=orthogonalEdgeStyle;exitX=0;exitY=0.5;exitDx=0;exitDy=0;entryX=1;entryY=0.5;entryDx=0;entryDy=0;" parent="1" source="8F8h1WCyKU_KMm5QtPAq-19" target="8F8h1WCyKU_KMm5QtPAq-18" edge="1">
          <mxGeometry width="50" height="50" relative="1" as="geometry">
            <mxPoint x="390" y="250" as="sourcePoint" />
            <mxPoint x="440" y="200" as="targetPoint" />
          </mxGeometry>
        </mxCell>
        <mxCell id="8F8h1WCyKU_KMm5QtPAq-33" value="" style="endArrow=classic;html=1;rounded=0;strokeColor=#051742;strokeWidth=2;fontSize=10;fontColor=#051742;entryX=1;entryY=0.5;entryDx=0;entryDy=0;exitX=0.025;exitY=0.933;exitDx=0;exitDy=0;exitPerimeter=0;" parent="1" source="8F8h1WCyKU_KMm5QtPAq-28" target="8F8h1WCyKU_KMm5QtPAq-17" edge="1">
          <mxGeometry width="50" height="50" relative="1" as="geometry">
            <mxPoint x="690" y="166" as="sourcePoint" />
            <mxPoint x="440" y="200" as="targetPoint" />
          </mxGeometry>
        </mxCell>
        <mxCell id="8F8h1WCyKU_KMm5QtPAq-34" value="" style="endArrow=classic;html=1;rounded=0;strokeColor=#051742;strokeWidth=2;fontSize=10;fontColor=#051742;exitX=0.5;exitY=1;exitDx=0;exitDy=0;entryX=0.5;entryY=0;entryDx=0;entryDy=0;" parent="1" source="8F8h1WCyKU_KMm5QtPAq-28" target="8F8h1WCyKU_KMm5QtPAq-5" edge="1">
          <mxGeometry width="50" height="50" relative="1" as="geometry">
            <mxPoint x="390" y="250" as="sourcePoint" />
            <mxPoint x="710" y="190" as="targetPoint" />
          </mxGeometry>
        </mxCell>
        <mxCell id="pgBuAp0Ghc7Rh0t8Ei1n-3" value="" style="endArrow=classic;html=1;rounded=0;strokeColor=#051742;strokeWidth=2;fontSize=10;fontColor=#051742;entryX=0.5;entryY=0;entryDx=0;entryDy=0;exitX=0.5;exitY=1;exitDx=0;exitDy=0;dashed=1;dashPattern=1 1;" parent="1" source="8F8h1WCyKU_KMm5QtPAq-17" target="8F8h1WCyKU_KMm5QtPAq-19" edge="1">
          <mxGeometry width="50" height="50" relative="1" as="geometry">
            <mxPoint x="390" y="250" as="sourcePoint" />
            <mxPoint x="440" y="200" as="targetPoint" />
          </mxGeometry>
        </mxCell>
      </root>
    </mxGraphModel>
  </diagram>
</mxfile>
